<svg width="30" height="30" viewBox="0 0 30 30" fill="none" xmlns="http://www.w3.org/2000/svg">
<path d="M17.8125 0H3.4375C1.5375 0 0 1.5375 0 3.4375V22.8125C0 24.7125 1.5375 26.25 3.4375 26.25H11.675C11 24.825 10.625 23.2375 10.625 21.5625C10.625 20.125 10.9 18.75 11.4125 17.4875C11.3625 17.5 11.3125 17.5 11.25 17.5H5C4.3125 17.5 3.75 16.9375 3.75 16.25C3.75 15.5625 4.3125 15 5 15H11.25C11.725 15 12.15 15.275 12.35 15.675C13.1625 14.4125 14.2125 13.3375 15.45 12.5H5C4.3125 12.5 3.75 11.9375 3.75 11.25C3.75 10.5625 4.3125 10 5 10H16.25C16.9375 10 17.5 10.5625 17.5 11.25C17.5 11.3125 17.5 11.3625 17.4875 11.4125C18.65 10.9375 19.925 10.6625 21.25 10.6375V3.4375C21.25 1.5375 19.7125 0 17.8125 0ZM10 7.5H5C4.3125 7.5 3.75 6.9375 3.75 6.25C3.75 5.5625 4.3125 5 5 5H10C10.6875 5 11.25 5.5625 11.25 6.25C11.25 6.9375 10.6875 7.5 10 7.5Z" fill="#FCFCFC"/>
<path d="M21.5625 13.125C16.91 13.125 13.125 16.91 13.125 21.5625C13.125 26.215 16.91 30 21.5625 30C26.215 30 30 26.215 30 21.5625C30 16.91 26.215 13.125 21.5625 13.125ZM25 22.8125H22.8125V25C22.8125 25.69 22.2525 26.25 21.5625 26.25C20.8725 26.25 20.3125 25.69 20.3125 25V22.8125H18.125C17.435 22.8125 16.875 22.2525 16.875 21.5625C16.875 20.8725 17.435 20.3125 18.125 20.3125H20.3125V18.125C20.3125 17.435 20.8725 16.875 21.5625 16.875C22.2525 16.875 22.8125 17.435 22.8125 18.125V20.3125H25C25.69 20.3125 26.25 20.8725 26.25 21.5625C26.25 22.2525 25.69 22.8125 25 22.8125Z" fill="#FCFCFC"/>
</svg>
