<svg width="30" height="30" viewBox="0 0 30 30" fill="none" xmlns="http://www.w3.org/2000/svg">
<path d="M24.8438 3.75H19.6875V2.8125C19.6875 1.25918 18.4283 0 16.875 0H13.125C11.5717 0 10.3125 1.25918 10.3125 2.8125V3.75H5.15625C3.86186 3.75 2.8125 4.79936 2.8125 6.09375V7.96875C2.8125 8.48654 3.23221 8.90625 3.75 8.90625H26.25C26.7678 8.90625 27.1875 8.48654 27.1875 7.96875V6.09375C27.1875 4.79936 26.1381 3.75 24.8438 3.75ZM12.1875 2.8125C12.1875 2.2957 12.6082 1.875 13.125 1.875H16.875C17.3918 1.875 17.8125 2.2957 17.8125 2.8125V3.75H12.1875V2.8125Z" fill="#FCFCFC"/>
<path d="M4.59165 10.7812C4.42436 10.7812 4.29106 10.9211 4.29903 11.0882L5.07247 27.3211C5.14395 28.8234 6.37794 30 7.88145 30H22.1186C23.6221 30 24.8561 28.8234 24.9276 27.3211L25.701 11.0882C25.709 10.9211 25.5757 10.7812 25.4084 10.7812H4.59165ZM18.75 13.125C18.75 12.607 19.1695 12.1875 19.6875 12.1875C20.2055 12.1875 20.625 12.607 20.625 13.125V25.3125C20.625 25.8305 20.2055 26.25 19.6875 26.25C19.1695 26.25 18.75 25.8305 18.75 25.3125V13.125ZM14.0625 13.125C14.0625 12.607 14.482 12.1875 15 12.1875C15.518 12.1875 15.9375 12.607 15.9375 13.125V25.3125C15.9375 25.8305 15.518 26.25 15 26.25C14.482 26.25 14.0625 25.8305 14.0625 25.3125V13.125ZM9.37501 13.125C9.37501 12.607 9.79454 12.1875 10.3125 12.1875C10.8305 12.1875 11.25 12.607 11.25 13.125V25.3125C11.25 25.8305 10.8305 26.25 10.3125 26.25C9.79454 26.25 9.37501 25.8305 9.37501 25.3125V13.125Z" fill="#FCFCFC"/>
</svg>
