<svg width="25" height="25" viewBox="0 0 25 25" fill="none" xmlns="http://www.w3.org/2000/svg">
<g clip-path="url(#clip0)">
<path d="M9.01708 20.1009C8.84325 20.1333 8.76733 20.2149 8.78908 20.345C8.81075 20.4751 8.90842 20.5186 9.082 20.4751C9.25583 20.4318 9.33166 20.3557 9.30983 20.2473C9.28833 20.128 9.19067 20.0791 9.01708 20.1009Z" fill="white"/>
<path d="M8.08929 20.2313C7.91564 20.2313 7.82888 20.2906 7.82888 20.4102C7.82888 20.5513 7.92118 20.6107 8.10553 20.5891C8.27918 20.5891 8.36608 20.5294 8.36608 20.4102C8.36608 20.2693 8.27377 20.2094 8.08929 20.2313Z" fill="white"/>
<path d="M6.81982 20.182C6.77649 20.3015 6.84707 20.3827 7.03137 20.4263C7.19413 20.4911 7.29725 20.4587 7.34058 20.3286C7.37318 20.2093 7.30261 20.1228 7.12903 20.0682C6.96621 20.0248 6.8632 20.0623 6.81982 20.182Z" fill="white"/>
<path d="M23.6247 1.3752C22.7078 0.458457 21.6039 0 20.3124 0H4.68748C3.39636 0 2.29218 0.458457 1.3752 1.3752C0.458457 2.29212 0 3.3963 0 4.68748V20.3127C0 21.6038 0.458457 22.7079 1.3752 23.6247C2.29212 24.5416 3.39636 25.0001 4.68748 25.0001H8.33329C8.57183 25.0001 8.751 24.9918 8.87033 24.9759C8.98958 24.9595 9.10883 24.8889 9.22825 24.764C9.34775 24.6393 9.40725 24.4575 9.40725 24.2189C9.40725 24.1865 9.40442 23.8172 9.39908 23.1119C9.3935 22.4065 9.39083 21.8478 9.39083 21.4353L9.0165 21.5005C8.77775 21.5438 8.47667 21.5629 8.11313 21.5575C7.74977 21.552 7.3726 21.5142 6.98204 21.4436C6.59125 21.3729 6.22788 21.2103 5.89148 20.9555C5.55524 20.7003 5.31655 20.3667 5.17546 19.9545L5.01264 19.5798C4.90416 19.3306 4.73337 19.0538 4.50003 18.7502C4.2667 18.4462 4.03074 18.24 3.79205 18.1315L3.67809 18.0501C3.60222 17.9959 3.53169 17.9305 3.46653 17.8547C3.40149 17.7785 3.35269 17.7025 3.32014 17.6268C3.28758 17.5507 3.31461 17.4883 3.40149 17.4393C3.48837 17.3905 3.64554 17.3663 3.87352 17.3663L4.19892 17.4151C4.416 17.4584 4.68439 17.5885 5.00467 17.8057C5.32471 18.0227 5.5878 18.3048 5.79399 18.6518C6.04369 19.0968 6.34452 19.4357 6.69734 19.669C7.04988 19.9026 7.40533 20.0193 7.76333 20.0193C8.12134 20.0193 8.43058 19.9921 8.69108 19.9381C8.95133 19.8837 9.1955 19.8021 9.42342 19.6936C9.52108 18.9667 9.787 18.4076 10.2209 18.017C9.6025 17.9518 9.04642 17.8543 8.55258 17.724C8.05898 17.5937 7.54893 17.3823 7.02274 17.0892C6.49633 16.7961 6.05965 16.4328 5.71242 15.9986C5.36524 15.5643 5.08032 14.9947 4.85804 14.2896C4.63565 13.5841 4.52443 12.7703 4.52443 11.848C4.52443 10.5352 4.95318 9.41733 5.81036 8.49517C5.40879 7.50777 5.4467 6.40113 5.9242 5.17489C6.23888 5.07718 6.70555 5.15049 7.32398 5.39465C7.94251 5.63899 8.39542 5.84793 8.683 6.02128C8.97067 6.1947 9.20117 6.34133 9.37483 6.46082C10.3842 6.17868 11.4258 6.03764 12.4999 6.03764C13.574 6.03764 14.6158 6.17868 15.6251 6.46082L16.2436 6.0702C16.6669 5.80968 17.166 5.57098 17.7412 5.35407C18.3163 5.13709 18.7556 5.07735 19.0596 5.17506C19.5477 6.4013 19.5913 7.50793 19.1895 8.49525C20.0467 9.41758 20.4755 10.5353 20.4755 11.8482C20.4755 12.7706 20.3643 13.5872 20.1419 14.2978C19.9197 15.0085 19.6323 15.5783 19.2793 16.0069C18.9268 16.4355 18.4873 16.7961 17.9612 17.0893C17.4348 17.3821 16.9248 17.5939 16.431 17.7238C15.9373 17.8542 15.3813 17.9521 14.7628 18.0173C15.3267 18.5054 15.6088 19.2756 15.6088 20.3283V24.2183C15.6088 24.4029 15.6357 24.552 15.6899 24.6659C15.7446 24.7798 15.8312 24.8583 15.9505 24.902C16.0703 24.9453 16.1757 24.9724 16.2681 24.9832C16.3606 24.9941 16.4933 24.9996 16.6669 24.9996H20.3127C21.6038 24.9996 22.7081 24.5411 23.6246 23.6242C24.5415 22.7073 24.9999 21.603 24.9999 20.3119V4.68748C24.9998 3.3963 24.5413 2.29194 23.6247 1.3752Z" fill="white"/>
<path d="M4.94786 18.1966C4.87198 18.2507 4.88282 18.3375 4.98047 18.4568C5.08913 18.5653 5.17583 18.5817 5.24099 18.5056C5.31688 18.4516 5.30604 18.3648 5.20822 18.2452C5.09978 18.1477 5.01302 18.1313 4.94786 18.1966Z" fill="white"/>
<path d="M4.41096 17.7897C4.37847 17.8658 4.41644 17.931 4.52492 17.985C4.61163 18.0394 4.68238 18.0288 4.73648 17.9527C4.76897 17.8765 4.731 17.8113 4.62252 17.7569C4.51403 17.7243 4.44351 17.7352 4.41096 17.7897Z" fill="white"/>
<path d="M5.45256 18.8315C5.35479 18.8855 5.35479 18.9834 5.45256 19.1243C5.55021 19.2656 5.64228 19.3034 5.72922 19.2382C5.82693 19.1622 5.82693 19.0591 5.72922 18.9288C5.64251 18.7882 5.55021 18.7552 5.45256 18.8315Z" fill="white"/>
<path d="M6.02238 19.5636C5.92467 19.6506 5.94622 19.7532 6.08748 19.8731C6.21752 20.003 6.32607 20.0193 6.41289 19.9215C6.49977 19.8348 6.47805 19.7318 6.34779 19.6125C6.21775 19.4825 6.10921 19.4661 6.02238 19.5636Z" fill="white"/>
</g>
<defs>
<clipPath id="clip0">
<rect width="25" height="25" fill="white"/>
</clipPath>
</defs>
</svg>
